<?xml version="1.0" encoding="utf-8"?>
<!-- Generator: Adobe Illustrator 24.0.1, SVG Export Plug-In . SVG Version: 6.00 Build 0)  -->
<svg version="1.1" id="Layer_1" xmlns="http://www.w3.org/2000/svg" xmlns:xlink="http://www.w3.org/1999/xlink" x="0px" y="0px"
	 viewBox="0 0 500 255.1" style="enable-background:new 0 0 500 255.1;" xml:space="preserve">
<style type="text/css">
	.st0{fill:#0071CE;}
	.st1{fill:#FFDD00;}
	.st2{fill:#EA0029;}
</style>
<g>
	<path class="st0" d="M2.2,13.2h36.2c9.4,0,16.7,2.5,21.8,7.6c5.2,5,7.7,12.2,7.7,21.4c0,4.8-0.9,9.6-2.5,14.5
		c-1.7,4.8-5.3,9-10.7,12.6s-12.3,5.4-20.6,5.4h-8v40.3H2.2V13.2z M26.2,32.8v21.8h5.2c3.9,0,7-1,9.3-3c2.3-2,3.5-4.9,3.5-8.5
		c0-3.5-0.9-6-2.7-7.7c-1.8-1.7-4.4-2.6-8-2.6H26.2z"/>
	<path class="st0" d="M109.7,11.5c12.3,0,22,4.6,29.1,13.9c7.1,9.3,10.6,22,10.6,38.1c0,16.1-3.6,29-10.7,38.6
		c-7.1,9.6-16.4,14.4-27.8,14.4c-11.8,0-21-5-27.4-15c-6.5-10-9.7-22.4-9.7-37.3c0-10.3,1.6-19.6,4.7-27.8
		c3.2-8.2,7.6-14.4,13.3-18.7C97.6,13.6,103.5,11.5,109.7,11.5z M112.3,32.9c-4.8,0-8.4,2.7-10.9,8.2c-2.5,5.5-3.8,13-3.8,22.5
		c0,9.7,1.2,17.3,3.7,22.8c2.5,5.5,5.8,8.3,10.2,8.3c4.3,0,7.7-2.8,10.3-8.5c2.6-5.7,3.9-13.3,3.9-22.8c0-9.8-1.3-17.4-3.9-22.6
		S115.9,32.9,112.3,32.9z"/>
	<path class="st0" d="M159.4,13.2H196c8.3,0,15,2.1,20.1,6.4c5.1,4.3,7.7,10.4,7.7,18.2c0,6.5-1.8,12-5.5,16.5
		c-3.7,4.5-9.2,8.1-16.5,10.8c9.2,1.5,14.9,7.3,17.1,17.5l6.9,32.3h-26L196,86.8c-0.7-4.8-1.8-8.2-3.4-10.4c-1.6-2.2-4-3.3-7.3-3.3
		h-2.2v41.9h-23.7V13.2z M183.1,32.9v21.8h5.2c3.7,0,6.5-1.1,8.5-3.3c1.9-2.2,2.9-5,2.9-8.3c0-3.4-0.9-6-2.6-7.7
		c-1.7-1.7-4.3-2.6-7.7-2.6H183.1z"/>
	<path class="st0" d="M229.1,13.2h64.3v20.6h-20.6v81.1h-23.7V33.8h-19.9V13.2z"/>
	<path class="st0" d="M304.4,13.2h58v20.5h-34.3v18.7h31.9v19.8h-31.9v21.9h34.3v20.8h-58V13.2z"/>
	<path class="st1" d="M439,38.6c-0.2-0.1-0.3-0.1-0.5-0.2c-0.5-0.2-1-0.6-1.2-1.2c-0.2-0.5-0.2-1.2,0.1-1.7l1.2-2.2
		c0.4-0.8,0.3-1.7-0.4-2.4c-0.6-0.6-1.6-0.8-2.4-0.3l-12.7,6.8c-1,0.5-1.6,1.6-1.6,2.7c0,1.1,0.6,2.2,1.6,2.7l12.6,6.8
		c0.8,0.4,1.7,0.3,2.4-0.3c0.6-0.6,0.8-1.6,0.4-2.4l-0.8-1.5c-0.2-0.3-0.1-0.7,0.2-0.9c0.3-0.2,0.6-0.2,0.9,0
		c35.9,28.2-104.7,56.4-40.1,84.6c7.9,0,15.8,0,23.7,0c-0.5-0.3-0.9-0.6-1.4-0.8c-2.1-1.4-4.6-2.9-7-4.9c-2.4-2-5.1-4.4-6.9-7.8
		c-0.9-1.8-1.4-3.8-1.3-5.9c0.1-2.1,0.8-4.2,1.9-5.9c1.1-1.7,2.3-3.4,3.7-4.8c0.7-0.7,1.4-1.4,2.2-2.1c0.8-0.7,1.5-1.3,2.3-2
		c3.1-2.6,6.4-4.9,9.8-7.2c3.3-2.3,6.7-4.5,10-6.8c1.6-1.1,3.3-2.2,4.9-3.3c1.6-1.1,3.1-2.2,4.6-3.4c2.9-2.3,5.5-4.8,7.5-7.5
		c2-2.7,3.2-5.7,3.2-8.6c0-1.4-0.3-2.8-0.8-4c-0.5-1.2-1.2-2.3-1.9-3.2c-1.5-1.9-3.2-3.2-4.7-4.2c-1.5-1-2.7-1.6-3.5-2.1
		c-0.9-0.4-1.3-0.6-1.3-0.6s0.5,0.2,1.4,0.6c0.9,0.4,2.1,1,3.6,1.9c1.5,1,3.3,2.2,4.9,4.1c0.8,0.9,1.6,2,2.1,3.3
		c0.6,1.2,1,2.7,1,4.2c0.2,3-1,6.3-3,9.2c-1.9,2.9-4.5,5.6-7.4,8c-1.4,1.3-3,2.4-4.5,3.6c-1.6,1.2-3.1,2.3-4.7,3.5
		c-3.2,2.4-6.5,4.7-9.7,7.1c-3.2,2.4-6.4,4.9-9.2,7.5c-0.7,0.6-1.4,1.3-2.1,2c-0.6,0.7-1.3,1.3-1.9,2c-1.3,1.4-2.3,2.8-3.1,4.3
		c-0.8,1.5-1.2,3-1.2,4.4c0,1.4,0.4,2.8,1.1,4.1c1.5,2.5,3.9,4.6,6.1,6.3c2.3,1.7,4.7,3.1,6.7,4.3c1.1,0.6,2.1,1.1,3,1.6
		c0.9,0.5,1.8,0.9,2.6,1.3c1.6,0.8,2.8,1.3,3.7,1.7c0.1,0.1,0.2,0.1,0.3,0.1c11.4,0,22.8,0,34.1,0C378.7,99.1,526,68.8,439,38.6z"/>
	<g>
		<path class="st0" d="M496.2,63.8c0-35.1-28.5-63.6-63.6-63.6S369,28.7,369,63.8c0,14.7,5,28.2,13.3,39l15.1-12.3
			c-5.6-7.4-9-16.6-9-26.7c0-24.4,19.8-44.2,44.2-44.2c24.4,0,44.2,19.8,44.2,44.2c0,18.8-11.8,34.9-28.4,41.3l7.9,17.8
			C479.7,113.5,496.2,90.6,496.2,63.8z"/>
	</g>
	<g>
		<path class="st2" d="M273.2,128.5h36.2c7.6,0,13.8,2.2,18.6,6.5c4.7,4.4,7.1,10.1,7.1,17.2c0,5.4-1.4,10-4.3,13.9
			c-2.8,3.9-7.1,7-12.9,9.4c8,1.2,14,3.9,18,8.1c4,4.2,6,10,6,17.3c0,8.9-3.2,16.1-9.7,21.3s-15.3,7.9-26.3,7.9h-32.7V128.5z
			 M296.9,148.3v19.3h2.6c3.6,0,6.4-0.9,8.4-2.8c2.1-1.8,3.1-4.4,3.1-7.7c0-3-0.8-5.2-2.4-6.7c-1.6-1.5-4-2.2-7.3-2.2H296.9z
			 M296.9,186.5v23.8h7.7c3.8,0,6.9-1.1,9.4-3.3c2.5-2.2,3.8-5.1,3.8-8.6c0-3.6-1.3-6.5-3.8-8.6c-2.5-2.2-5.7-3.2-9.4-3.2H296.9z"/>
		<path class="st2" d="M347.3,128.5h64.3v20.6h-20.6v81.1h-23.7v-81.1h-19.9V128.5z"/>
		<path class="st2" d="M421.7,128.5h36.2c9.4,0,16.7,2.5,21.8,7.6c5.2,5,7.7,12.2,7.7,21.4c0,4.8-0.9,9.6-2.5,14.5
			c-1.7,4.8-5.3,9-10.7,12.6c-5.5,3.6-12.3,5.4-20.6,5.4h-8v40.3h-23.9V128.5z M445.6,148.1V170h5.2c3.9,0,7-1,9.3-3
			c2.3-2,3.5-4.9,3.5-8.5c0-3.5-0.9-6-2.7-7.7c-1.8-1.7-4.4-2.6-8-2.6H445.6z"/>
	</g>
</g>
</svg>
